# xmcd
#
# Track frame offsets:
#	187
#	12047
#	22110
#	30917
#	43995
#	58105
#	68690
#	77830
#	86702
#	101765
#	110872
#	120680
#	132250
#	146362
#	160837
#	171115
#	183772
#	197230
#
# Disc length: 2836 seconds
#
# Revision: 1
# Processed by: cddbd v1.5.1PL0 Copyright (c) Steve Scherf et al.
# Submitted via: CDex 1.50Beta5
#
DISCID=f50b1212
DTITLE=バディ・メリル - ハワイアン Disc 1
DYEAR=1996
DGENRE=
TTITLE0=バディ・メリル/ハワイアン・ウエディング・ソング
TTITLE1=バディ・メリル/アカカの滝
TTITLE2=バディ・メリル/真珠貝の歌
TTITLE3=バディ・メリル/想い出はいつまでも
TTITLE4=バディ・メリル/珊瑚礁の行方
TTITLE5=バディ・メリル/ラハイナ・ルナ
TTITLE6=バディ・メリル/タフワフワイ
TTITLE7=バディ・メリル/カルアの恋唄
TTITLE8=バディ・メリル/マナクーラの月
TTITLE9=デューク・ケモク・アンド・ヒズ・アイランダース/ワイキキの浜辺で
TTITLE10=キリマ・ハワイアンズ/マウイ・チャイムス
TTITLE11=キリマ・ハワイアンズ/ココナッツ・グローブ
TTITLE12=キリマ・ハワイアンズ/タイニー・バブルス
TTITLE13=キリマ・ハワイアンズ/カイマナ・ヒラ
TTITLE14=キリマ・ハワイアンズ/マリヒニ・メレ
TTITLE15=キリマ・ハワイアンズ/ラブリー・フラ・ハンズ
TTITLE16=デューク・ケモク・アンド・ヒズ・アイランダース/港の灯
TTITLE17=デューク・ケモク・アンド・ヒズ・アイランダース/島の歌
EXTD=
EXTT0=
EXTT1=
EXTT2=
EXTT3=
EXTT4=
EXTT5=
EXTT6=
EXTT7=
EXTT8=
EXTT9=
EXTT10=
EXTT11=
EXTT12=
EXTT13=
EXTT14=
EXTT15=
EXTT16=
EXTT17=
PLAYORDER=
